<svg width="150px" height="43px" viewBox="0 0 150 43" version="1.1" xmlns="http://www.w3.org/2000/svg"><defs><linearGradient x1="60.0992396%" y1="91.9962274%" x2="33.4979601%" y2="-59.2375031%" id="linearGradient-1"><stop stop-color="#D6FFA1" offset="0%"></stop><stop stop-color="#93E2A7" offset="32.64%"></stop><stop stop-color="#00A3B5" offset="100%"></stop></linearGradient><linearGradient x1="-31.9929976%" y1="-128.766137%" x2="80.4575178%" y2="114.289103%" id="linearGradient-2"><stop stop-color="#FF177B" offset="0%"></stop><stop stop-color="#FFA976" offset="67.21%"></stop><stop stop-color="#FFEC73" offset="100%"></stop></linearGradient><linearGradient x1="50.8965834%" y1="74.7173826%" x2="-0.0208687729%" y2="-29.4412124%" id="linearGradient-3"><stop stop-color="#63FFD4" offset="0%"></stop><stop stop-color="#32A0BA" offset="48.54%"></stop><stop stop-color="#1262A9" offset="83.49%"></stop><stop stop-color="#064AA2" offset="100%"></stop></linearGradient><linearGradient x1="119.292053%" y1="35.6784518%" x2="-22.9977607%" y2="61.1810145%" id="linearGradient-4"><stop stop-color="#FF4521" offset="0%"></stop><stop stop-color="#D43E65" offset="34.11%"></stop><stop stop-color="#9F36B9" offset="79.35%"></stop><stop stop-color="#8A33DB" offset="100%"></stop></linearGradient></defs><g stroke="none" stroke-width="1" fill="none" fill-rule="evenodd"><g><path d="M149.178711,38.5187675 C149.178711,40.8896359 147.258263,42.810084 144.882913,42.810084 L4.30140056,42.810084 C1.92717087,42.810084 0,40.8896359 0,38.5187675 L0,4.29691877 C0,1.92717087 1.92717087,0 4.30140056,0 L144.881793,0 C147.258263,0 149.177591,1.92717087 149.177591,4.29691877 L149.178711,38.5187675 L149.178711,38.5187675 L149.178711,38.5187675 Z" fill="#EDEDED"></path><g transform="translate(12.605042, 6.302521)"><g transform="translate(0.029314, 2.755521)"><polygon points="13.1906195 12.4596443 17.0431894 8.60707446 17.0417823 8.60707446 13.1906195 12.4596443 0.894195818 0.164627712 0.894195818 0.164627712 13.1906195 12.4617549 0.874496775 24.7778777 0.874496775 24.7778777 13.1906195 12.4617549 17.0600743 16.3312097 17.0621849 16.3312097"></polygon><path d="M17.0417823,8.60707446 L2.03040844,0.353175689 C1.60547196,0.120304866 1.21219465,0.0661324995 0.894195818,0.164627712 L13.1906195,12.4596443 L17.0417823,8.60707446 L17.0417823,8.60707446 Z" fill="url(#linearGradient-1)"></path><path d="M17.0621849,16.3312097 L22.1860465,13.5135431 C23.225171,12.9401603 23.225171,12.0065663 22.1860465,11.4352941 L17.0424858,8.60707446 L13.189916,12.4596443 L17.0621849,16.3312097 L17.0621849,16.3312097 Z" fill="url(#linearGradient-2)"></path><path d="M0.894195818,0.164627712 C0.437600156,0.307445769 0.14211452,0.769669728 0.14211452,1.46898573 L0.144928669,23.4784444 C0.144928669,24.169318 0.431268321,24.6252101 0.875200313,24.7771741 L13.191323,12.4610514 L0.894195818,0.164627712 L0.894195818,0.164627712 Z" fill="url(#linearGradient-3)"></path><path d="M0.874496775,24.7778777 C1.19390268,24.8862224 1.5949189,24.8355677 2.03040844,24.5963651 L17.0600743,16.3312097 L13.1906195,12.4617549 L0.874496775,24.7778777 L0.874496775,24.7778777 Z" fill="url(#linearGradient-4)"></path></g><g transform="translate(34.033613, 0.000000)" fill="#8B8B8B"><g transform="translate(1.143248, 12.986125)"><g><path d="M55.151564,12.4274713 L54.2329499,13.2937233 C54.0212247,13.4103998 53.8100687,13.5458584 53.5994818,13.6420454 C52.9614605,13.9317446 52.3126252,14.0045963 51.7360725,14.0045963 C51.1225248,14.0045963 50.1606551,13.9653247 49.1800032,13.25559 C47.8163109,12.2948585 47.2209761,10.6448819 47.2209761,9.20663047 C47.2209761,6.22881824 49.6450018,4.76836981 51.6216726,4.76836981 C52.3131944,4.76836981 53.0229291,4.94139254 53.6000509,5.30622007 C54.5596441,5.9402573 54.8077951,6.76496104 54.9455303,7.20719347 L50.4298648,9.03133112 L48.9512034,9.14630017 C49.4298617,11.5874004 51.0815458,13.007439 52.9068217,13.007439 C53.818606,13.007439 54.4953297,12.7103407 55.1162764,12.4029977 C55.1162764,12.4035669 55.2409211,12.3386833 55.151564,12.4274713 L55.151564,12.4274713 Z M52.4275943,7.57088269 C52.7946984,7.43770072 52.9847958,7.32216252 52.9847958,7.05522943 C52.9847958,6.28801022 52.1168364,5.40240705 51.0809766,5.40240705 C50.3131882,5.40240705 48.8732294,6.00001844 48.8732294,8.07458373 C48.8732294,8.39843219 48.9113627,8.74333934 48.931283,9.08824649 L52.4275943,7.57088269 L52.4275943,7.57088269 Z"></path><path d="M45.7110113,12.2783531 C45.7110113,13.0250827 45.8441933,13.1411901 46.4753848,13.1992438 C46.8043556,13.2379462 47.1321881,13.25559 47.4571749,13.2937233 L46.7468711,13.7166045 L43.3621139,13.7166045 C43.8060538,13.1406209 43.8823204,13.0837056 43.8823204,12.6995268 L43.8823204,12.2709541 L43.8749214,0.852023109 L42.3803238,0.852023109 L43.8185752,0.158793886 L46.565311,0.158793886 C45.9699763,0.503131882 45.7924003,0.713718756 45.7155646,1.38532014 L45.7110113,12.2783531 L45.7110113,12.2783531 Z"></path><path d="M40.4622758,5.71088836 C40.9028008,6.07343927 41.8236915,6.84236594 41.8236915,8.30224521 C41.8236915,9.72456034 41.0217539,10.3950234 40.2129865,11.0296298 C39.9648354,11.2789191 39.6751362,11.5504055 39.6751362,11.9693026 C39.6751362,12.3938913 39.9654046,12.6243985 40.174284,12.7962829 L40.8680824,13.3318566 C41.7115682,14.0438679 42.4804948,14.6966872 42.4804948,16.0228153 C42.4804948,17.8298784 40.7320546,19.6511703 37.4281173,19.6511703 C34.6449557,19.6511703 33.2994763,18.3261804 33.2994763,16.9050036 C33.2994763,16.2129127 33.6432451,15.2333991 34.7798451,14.5629361 C35.9705147,13.8349885 37.5840655,13.7376632 38.4474716,13.6807478 C38.1776928,13.3324257 37.8697806,12.9675982 37.8697806,12.3722634 C37.8697806,12.0467075 37.9676751,11.8526261 38.0621546,11.6238263 C37.8521369,11.6437467 37.6404117,11.6642362 37.4480377,11.6642362 C35.4110366,11.6642362 34.2590695,10.1445958 34.2590695,8.64658321 C34.2590695,7.76325665 34.6620303,6.78374311 35.4895798,6.07343927 C36.5846315,5.17189979 37.8902702,5.01652083 38.9278374,5.01652083 L42.8857323,5.01652083 L41.655222,5.71145751 L40.4622758,5.71145751 L40.4622758,5.71088836 Z M39.1008601,14.2373801 C38.9437737,14.2168906 38.8492942,14.2168906 38.6591968,14.2168906 C38.4850358,14.2168906 37.4474686,14.2544547 36.6438235,14.5242336 C36.2186657,14.6796126 34.9898628,15.1389196 34.9898628,16.5037502 C34.9898628,17.8651659 36.3165601,18.8463869 38.3694976,18.8463869 C40.2129865,18.8463869 41.1925,17.9624912 41.1925,16.7723908 C41.1919308,15.7928772 40.5584628,15.2760857 39.1008601,14.2373801 L39.1008601,14.2373801 Z M39.6535084,10.5879665 C40.0974483,10.1451649 40.1361507,9.53275554 40.1361507,9.18443347 C40.1361507,7.80309741 39.3125853,5.65169637 37.7161091,5.65169637 C37.2180996,5.65169637 36.6785419,5.90155485 36.3723372,6.28801022 C36.0479196,6.68812528 35.9505943,7.20719347 35.9505943,7.70634128 C35.9505943,8.99262867 36.7001697,11.1258168 38.3507155,11.1258168 C38.8316504,11.1258168 39.3495803,10.8918946 39.6535084,10.5879665 L39.6535084,10.5879665 Z"></path><path d="M28.5544418,13.9653247 C25.5015013,13.9653247 23.8680301,11.5874004 23.8680301,9.43543026 C23.8680301,6.92034 25.9215367,4.76836981 28.8424336,4.76836981 C31.6660051,4.76836981 33.4343657,6.97896283 33.4343657,9.29997167 C33.4343657,11.5663418 31.6864947,13.9653247 28.5544418,13.9653247 L28.5544418,13.9653247 Z M30.9562705,12.411535 C31.4206999,11.796849 31.5333923,11.0296298 31.5333923,10.2817618 C31.5333923,8.59023699 30.7274707,5.36427375 28.3455624,5.36427375 C27.7120943,5.36427375 27.074073,5.61185561 26.6141968,6.0165239 C25.8640522,6.68869444 25.7303011,7.53274939 25.7303011,8.3614372 C25.7303011,10.2589957 26.6676972,13.3887719 28.9955359,13.3887719 C29.747388,13.3882028 30.5134689,13.0250827 30.9562705,12.411535 L30.9562705,12.411535 Z"></path><path d="M18.3330103,13.9653247 C15.2795006,13.9653247 13.6488752,11.5874004 13.6488752,9.43543026 C13.6488752,6.92034 15.7029509,4.76836981 18.6227095,4.76836981 C21.4445736,4.76836981 23.2112267,6.97896283 23.2112267,9.29997167 C23.2106576,11.5663418 21.4656323,13.9653247 18.3330103,13.9653247 L18.3330103,13.9653247 Z M20.7354081,12.411535 C21.1964226,11.796849 21.3113916,11.0296298 21.3113916,10.2817618 C21.3113916,8.59023699 20.5031934,5.36427375 18.1235617,5.36427375 C17.487817,5.36427375 16.8566255,5.61185561 16.395611,6.0165239 C15.6443281,6.68869444 15.5111461,7.53274939 15.5111461,8.3614372 C15.5111461,10.2589957 16.4525264,13.3887719 18.776381,13.3887719 C19.5265256,13.3882028 20.2914682,13.0250827 20.7354081,12.411535 L20.7354081,12.411535 Z"></path><path d="M12.4280405,13.2988457 L9.85318908,13.8879198 C8.80993033,14.0524052 7.87310332,14.1975394 6.88106839,14.1975394 C1.91406394,14.1975394 0.0221969948,10.5412959 0.0221969948,7.68072936 C0.0221969948,4.18612556 2.70348014,0.947071779 7.29484314,0.947071779 C8.26638853,0.947071779 9.20150808,1.08992936 10.052962,1.32157492 C11.4024255,1.70120045 12.0330478,2.16790649 12.4280405,2.44223858 L10.9323045,3.86284625 L10.3016822,4.00399637 L10.7513136,3.28686269 C10.1423192,2.69209706 9.02279382,1.59419955 6.898143,1.59419955 C4.05749682,1.59419955 1.91406394,3.75356874 1.91406394,6.90611116 C1.91406394,10.2920066 4.3614249,13.4769908 8.2851706,13.4769908 C9.43827603,13.4769908 10.0319033,13.2453452 10.5708919,13.0290668 L10.5708919,10.1263829 L7.85261378,10.2726554 L9.29371098,9.49860632 L13.1087483,9.49860632 L12.6426114,9.9476686 C12.5162593,10.0546695 12.4997538,10.0910953 12.4644663,10.2345221 C12.4456842,10.3984383 12.4286096,10.9197831 12.4286096,11.1030506 L12.4286096,13.2988457 L12.4280405,13.2988457 Z"></path></g><g transform="translate(59.191986, 1.138307)"><path d="M1.49630511,11.371122 L1.49630511,16.2635674 L0.524759724,16.2635674 L0.524759724,3.81503734 L1.49630511,3.81503734 L1.49630511,5.23223009 C2.12863489,4.31646176 3.28572439,3.58965247 4.62892715,3.58965247 C7.03758566,3.58965247 8.66081205,5.41720504 8.66081205,8.31021337 C8.66081205,11.1838705 7.03758566,13.0495563 4.62892715,13.0495563 C3.36028352,13.0501255 2.22482186,12.3961679 1.49630511,11.371122 L1.49630511,11.371122 Z M7.61698414,8.31078252 C7.61698414,6.13035465 6.48038418,4.4672875 4.46501088,4.4672875 C3.21344186,4.4672875 2.01651161,5.45135427 1.49630511,6.30849976 L1.49630511,10.2931449 C2.01651161,11.152567 3.21344186,12.1719213 4.46501088,12.1719213 C6.48038418,12.1719213 7.61698414,10.4940562 7.61698414,8.31078252 L7.61698414,8.31078252 Z"></path><polygon points="9.98750936 12.8258789 9.98750936 0.377918066 10.9584856 0.377918066 10.9584856 12.8258789"></polygon><path d="M21.8600558,15.4582149 C22.0672278,15.5504178 22.4218105,15.6079023 22.6471954,15.6079023 C23.2413919,15.6079023 23.6551666,15.3648736 24.026824,14.5060207 L24.7354204,12.9010072 L20.9078617,3.81503734 L21.9915303,3.81503734 L25.2749781,11.6887098 L28.5259841,3.81503734 L29.6250199,3.81503734 L24.9573903,14.807103 C24.4730405,15.9397189 23.7115128,16.484399 22.66427,16.484399 C22.3500972,16.484399 21.9363224,16.4280528 21.6932938,16.3540628 L21.8600558,15.4582149 L21.8600558,15.4582149 Z"></path><path d="M19.0222554,12.7985595 C18.9573719,12.4860942 18.9084247,12.2111929 18.872568,11.9806857 C18.8424028,11.7513167 18.8258974,11.5168254 18.8258974,11.27835 C18.4923733,11.767253 18.0205449,12.1741979 17.4178111,12.4952006 C16.8145081,12.8173416 16.2419395,12.9761355 15.4553691,12.9761355 C14.5088665,12.9761355 13.7746582,12.7433516 13.2498984,12.2709541 C12.7274153,11.7991256 12.4644663,11.159966 12.4644663,10.3511986 C12.4644663,9.54356946 12.8452302,8.88790439 13.6044812,8.38647996 C14.3637323,7.88277893 15.3455224,7.63292045 16.5595273,7.63292045 L18.8253282,7.63292045 L18.8253282,6.51282594 C18.8253282,5.86797478 18.6050657,5.36142798 18.1668174,4.99318553 C17.7262924,4.62551223 17.1081915,4.43882981 16.3062539,4.43882981 C15.5737531,4.43882981 14.9795566,4.60900677 14.5270794,4.94025423 C14.0785863,5.27833154 13.8526322,5.69722867 13.8526322,6.20206801 L12.8583207,6.20206801 L12.8378312,6.15368995 C12.8019745,5.47355126 13.1133016,4.87593986 13.7752273,4.36085575 C14.4337382,3.84577164 15.2977135,3.5868067 16.3603235,3.5868067 C17.4189494,3.5868067 18.2760949,3.84178756 18.9226535,4.35061098 C19.5680738,4.85431202 19.8919223,5.58225962 19.8919223,6.53388463 L19.8919223,10.9795443 C19.8919223,11.2988395 19.9067203,11.6073208 19.9471302,11.907834 C19.9881093,12.2089163 20.0535619,12.5094295 20.1406424,12.7996979 L19.0222554,12.7996979 L19.0222554,12.7985595 Z M15.5743222,12.0911015 C16.3995951,12.0911015 16.9926533,11.9066957 17.5993711,11.5418682 C18.2015357,11.1787481 18.6107573,10.7057813 18.8258974,10.1332127 L18.8258974,8.40298542 L16.5492825,8.40298542 C15.6796156,8.40298542 14.9596362,8.59535938 14.3933283,8.98409136 C13.825882,9.37111589 13.5378902,9.83952939 13.5378902,10.3842095 C13.5378902,10.8975861 13.7200194,11.3090843 14.0825703,11.6204114 C14.4456904,11.9351534 14.9419924,12.0911015 15.5743222,12.0911015 L15.5743222,12.0911015 Z"></path></g></g><g transform="translate(0.439711, 0.732851)"><path d="M0.701426617,4.02634356 C0.701426617,1.66175493 2.45815908,0.141410983 4.64334571,0.141410983 C6.10740668,0.141410983 7.06421731,0.839319914 7.66152042,1.69552472 L6.5914403,2.31534102 C6.18620285,1.7518077 5.47633379,1.31280047 4.64264217,1.31280047 C3.15677155,1.31280047 2.0522181,2.43916357 2.0522181,4.02634356 C2.0522181,5.59171389 3.15606801,6.73988665 4.64264217,6.73988665 C5.40879422,6.73988665 6.08418996,6.39093219 6.42188782,6.06449091 L6.42188782,4.90435802 L4.16986516,4.90435802 L4.16986516,3.74492867 L7.72835646,3.74492867 L7.72835646,6.54852453 C6.99667774,7.37095955 5.93785421,7.92253273 4.64264217,7.92253273 C2.45815908,7.92253273 0.701426617,6.37967559 0.701426617,4.02634356 L0.701426617,4.02634356 Z"></path><polygon points="9.35845222 7.77619699 9.35845222 0.264529998 14.5041235 0.264529998 14.5041235 1.42466289 10.6754739 1.42466289 10.6754739 3.36150088 14.4260309 3.36150088 14.4260309 4.52093023 10.6754739 4.52093023 10.6754739 6.6160641 14.5041235 6.6160641 14.5041235 7.77549345 9.35845222 7.77549345"></polygon><polygon points="18.150557 7.77619699 18.150557 1.42536643 15.8760211 1.42536643 15.8760211 0.265233535 21.7428181 0.265233535 21.7428181 1.42536643 19.4689857 1.42536643 19.4689857 7.77619699 18.150557 7.77619699"></polygon><polygon points="26.3221419 7.77619699 26.3221419 0.264529998 27.6391636 0.264529998 27.6391636 7.77619699 26.3221419 7.77619699"></polygon><polygon points="31.3088138 7.77619699 31.3088138 1.42536643 29.0342779 1.42536643 29.0342779 0.265233535 34.9010748 0.265233535 34.9010748 1.42536643 32.6272425 1.42536643 32.6272425 7.77619699 31.3088138 7.77619699"></polygon><path d="M39.1532539,4.02634356 C39.1532539,1.78487395 40.7411374,0.141410983 42.9938636,0.141410983 C45.2346297,0.141410983 46.8337698,1.78557749 46.8337698,4.02634356 C46.8337698,6.26710963 45.2346297,7.91127614 42.9938636,7.91127614 C40.7411374,7.91127614 39.1532539,6.26710963 39.1532539,4.02634356 L39.1532539,4.02634356 Z M45.4822748,4.02634356 C45.4822748,2.47222982 44.5022474,1.31280047 42.9938636,1.31280047 C41.4735196,1.31280047 40.5047489,2.47222982 40.5047489,4.02634356 C40.5047489,5.56849717 41.4735196,6.73988665 42.9938636,6.73988665 C44.5029509,6.73988665 45.4822748,5.56849717 45.4822748,4.02634356 L45.4822748,4.02634356 Z"></path><polygon points="53.6088333 7.77619699 49.6901309 2.40469025 49.6901309 7.77619699 48.3731092 7.77619699 48.3731092 0.264529998 49.7246043 0.264529998 53.5645105 5.46789134 53.5645105 0.264529998 54.8822357 0.264529998 54.8822357 7.77619699 53.6088333 7.77619699"></polygon></g></g></g></g></g></svg>